<?xml version="1.0" standalone="no"?>
<!DOCTYPE svg PUBLIC "-//W3C//DTD SVG 20010904//EN"
 "http://www.w3.org/TR/2001/REC-SVG-20010904/DTD/svg10.dtd">
<svg version="1.0" xmlns="http://www.w3.org/2000/svg"
 width="300.000000pt" height="300.000000pt" viewBox="0 0 300.000000 300.000000"
 preserveAspectRatio="xMidYMid meet">
<metadata>
Created by potrace 1.10, written by Peter Selinger 2001-2011
</metadata>
<g transform="translate(0.000000,300.000000) scale(0.100000,-0.100000)"
fill="#000000" stroke="none">
<path d="M1466 2474 c-20 -25 -32 -32 -41 -24 -8 7 -18 3 -35 -15 -27 -29 -40
-32 -40 -9 0 14 -5 13 -32 -5 -66 -44 -127 -70 -288 -126 -279 -97 -382 -149
-482 -243 -27 -25 -58 -63 -68 -83 -24 -45 -53 -188 -79 -384 -11 -82 -23
-161 -27 -175 -4 -19 -3 -22 5 -10 21 30 32 -6 34 -109 2 -77 5 -98 13 -86 6
8 14 15 17 15 7 0 37 -89 37 -111 0 -9 6 -16 14 -15 8 0 40 -30 73 -69 74 -88
144 -142 208 -159 28 -7 103 -27 168 -45 131 -34 252 -86 310 -132 l38 -31 -7
26 c-3 15 -2 26 4 26 10 0 86 -79 115 -120 14 -20 17 -21 15 -6 -6 40 20 24
48 -29 16 -30 31 -55 34 -55 3 0 17 24 31 53 27 52 56 70 51 32 -2 -17 0 -17
15 5 29 41 105 120 115 120 6 0 7 -11 4 -26 l-7 -27 32 27 c73 62 239 126 441
170 96 21 171 73 255 176 32 40 63 68 70 66 8 -3 13 2 13 13 0 22 30 111 37
111 3 0 11 -7 17 -15 8 -12 11 9 12 86 2 103 14 140 35 109 8 -12 9 -9 5 10
-4 14 -17 102 -30 195 -31 216 -53 319 -76 366 -55 107 -247 221 -547 323
-156 53 -223 82 -290 127 -28 18 -33 19 -33 5 0 -23 -13 -20 -40 9 -16 18 -27
22 -35 15 -9 -8 -21 -1 -43 25 -17 19 -33 35 -34 34 -2 0 -16 -16 -32 -35z
m181 -84 c12 0 57 -18 100 -39 43 -22 137 -59 208 -84 265 -90 365 -139 461
-221 76 -66 97 -115 127 -306 44 -269 46 -295 32 -337 -7 -21 -16 -65 -20 -98
-4 -33 -13 -67 -20 -75 -7 -8 -20 -33 -29 -54 -17 -41 -101 -144 -171 -209
-51 -47 -101 -71 -195 -93 -41 -9 -106 -30 -145 -45 l-70 -29 35 31 c19 16 72
55 117 85 46 31 85 59 88 63 7 12 -235 -55 -322 -89 -87 -34 -149 -70 -120
-70 10 0 35 9 57 20 85 43 250 96 250 80 0 -30 -278 -196 -312 -187 -19 5 -95
-45 -104 -68 -3 -8 -16 -17 -27 -21 -12 -3 -38 -22 -58 -41 l-36 -34 -32 60
c-37 71 -47 79 -55 48 -5 -21 -7 -20 -27 13 -24 40 -69 90 -81 90 -4 0 -8 -9
-8 -20 0 -29 -20 -25 -119 19 -71 31 -179 72 -201 76 -24 4 -162 38 -190 47
-49 16 -128 76 -175 134 -22 27 -52 62 -67 79 -15 16 -30 40 -33 53 -3 13 -15
36 -26 51 -13 18 -24 55 -29 100 -5 39 -15 81 -21 92 -6 13 -8 39 -4 68 3 25
8 57 10 71 2 14 7 50 10 80 3 30 8 64 10 75 3 11 7 36 10 55 2 19 7 46 10 60
2 14 7 39 11 55 12 61 44 113 101 162 90 78 164 118 347 185 92 33 140 45 116
28 -28 -20 -130 -70 -130 -64 0 3 -14 -4 -30 -16 -16 -12 -30 -19 -30 -16 0
11 -146 -68 -205 -110 -89 -63 -117 -104 -146 -214 -17 -61 -15 -52 -35 -177
-3 -20 -10 -47 -14 -59 -6 -14 -5 -26 0 -29 6 -4 10 -4 10 -2 0 38 75 337 90
362 52 85 190 174 361 234 166 58 347 69 408 23 17 -12 31 -19 31 -14 0 17
-26 40 -59 51 -49 16 -181 14 -231 -4 -24 -8 -45 -14 -47 -12 -6 6 148 117
163 117 8 0 42 14 74 30 33 17 73 32 88 34 15 2 56 16 91 32 46 20 66 25 69
16 11 -35 71 -109 102 -125 34 -19 35 -19 15 0 -48 46 -75 80 -89 115 l-16 37
52 -35 c29 -19 63 -34 75 -34z"/>
<path d="M1637 2330 c3 -10 29 -33 58 -51 30 -18 52 -36 49 -41 -3 -4 -24 -13
-47 -19 -42 -11 -57 -23 -57 -47 0 -8 11 -4 31 10 28 21 42 23 137 23 l107 0
-56 26 c-31 15 -65 39 -77 54 -17 21 -22 23 -22 11 0 -10 5 -26 10 -37 7 -11
7 -19 1 -19 -5 0 -11 4 -13 8 -1 4 -31 29 -65 55 -45 34 -60 42 -56 27z"/>
<path d="M1384 2178 c14 -19 26 -40 26 -46 0 -7 5 -12 10 -12 17 0 11 42 -7
57 -45 35 -56 35 -29 1z"/>
<path d="M1598 2187 c-27 -22 -39 -67 -18 -67 6 0 10 5 10 12 0 6 11 26 26 45
29 38 21 42 -18 10z"/>
<path d="M2054 2169 c178 -60 333 -158 386 -244 13 -20 36 -102 56 -197 20
-90 37 -165 40 -167 19 -19 -48 291 -75 350 -12 25 -41 65 -64 88 -40 41 -179
131 -222 144 -11 3 -53 17 -93 31 -41 14 -84 26 -95 26 -12 0 18 -14 67 -31z"/>
<path d="M1468 2116 c15 -30 29 -55 32 -55 3 0 17 25 32 55 25 51 22 77 -4 34
-13 -20 -48 -28 -48 -10 0 5 -9 14 -19 20 -18 9 -17 4 7 -44z"/>
<path d="M925 2063 c-57 -13 -157 -49 -208 -76 -113 -59 -140 -112 -196 -382
-16 -77 -32 -148 -36 -157 -4 -11 -3 -18 3 -18 16 0 26 21 29 63 2 22 8 47 13
58 9 16 16 46 36 149 16 83 46 162 71 188 7 7 16 18 20 25 17 27 117 84 163
93 8 2 49 12 90 22 78 20 163 17 208 -7 47 -25 63 -61 61 -135 -4 -119 -41
-209 -99 -238 -48 -25 -51 -13 -7 27 50 46 68 93 74 190 5 71 3 83 -17 107
-28 36 -69 46 -149 36 -134 -16 -257 -74 -286 -135 -13 -27 -14 -43 -6 -90 19
-101 62 -148 147 -162 51 -9 47 -11 -51 -16 -69 -3 -121 -23 -151 -57 -29 -31
-38 -51 -59 -131 -9 -37 -20 -69 -24 -72 -4 -2 -8 17 -10 43 -1 25 -4 48 -5
50 -2 1 -8 -30 -14 -71 -6 -41 -14 -82 -17 -93 -6 -18 -5 -18 9 1 49 64 47 64
41 15 -9 -71 10 -28 36 80 44 184 64 202 234 207 292 9 349 49 386 271 9 59
-1 118 -27 159 -26 41 -86 63 -166 62 -40 -1 -82 -3 -93 -6z m180 -98 c19 -18
25 -35 25 -70 0 -38 -3 -45 -19 -45 -53 0 -290 -79 -383 -128 -8 -4 -20 51
-21 102 -1 25 6 44 24 62 46 51 192 102 297 103 43 1 57 -3 77 -24z m9 -167
c-21 -70 -70 -120 -132 -138 -63 -17 -163 -13 -199 10 -18 11 -33 23 -33 28 0
8 109 57 113 51 1 -2 7 -13 13 -24 36 -66 144 -31 160 51 6 32 16 39 67 43 15
1 17 -4 11 -21z m-124 -18 c0 -24 -41 -53 -63 -44 -31 11 -28 35 6 49 44 19
57 18 57 -5z"/>
<path d="M1865 2048 c-73 -42 -95 -130 -65 -259 24 -102 62 -154 134 -184 38
-16 287 -38 313 -28 6 3 32 -4 57 -15 55 -25 70 -52 105 -192 15 -58 33 -114
40 -125 12 -20 12 -20 7 0 -2 11 -7 36 -10 55 -6 33 -6 34 8 15 8 -11 22 -29
31 -40 16 -19 16 -19 11 -1 -4 11 -12 53 -19 95 l-12 76 -5 -55 c-6 -65 -14
-57 -41 43 -11 39 -27 82 -35 95 -23 34 -74 62 -117 62 -21 0 -52 7 -69 16
l-32 16 38 13 c54 19 84 51 101 109 30 101 9 158 -72 200 -38 19 -48 29 -49
50 -2 29 8 33 26 11 7 -8 17 -15 22 -15 5 0 34 -16 64 -36 68 -45 105 -106
129 -212 9 -42 28 -119 41 -170 14 -51 22 -97 19 -103 -8 -11 12 -39 27 -39 6
0 7 8 3 18 -4 9 -20 80 -36 157 -57 272 -83 323 -196 382 -100 53 -180 75
-283 80 -85 4 -99 2 -135 -19z m222 -18 c28 -6 59 -20 69 -31 21 -23 12 -24
-65 -5 -111 29 -174 25 -212 -14 -28 -28 -30 -34 -28 -102 2 -108 39 -183 112
-228 16 -10 25 -20 20 -23 -13 -8 -91 33 -106 56 -29 45 -54 134 -56 199 -4
107 27 143 134 157 54 7 56 7 132 -9z m-9 -55 c83 -20 166 -60 192 -92 22 -28
27 -93 10 -137 l-9 -26 -36 18 c-33 16 -35 19 -29 55 7 42 -4 117 -16 117 -5
0 -6 -31 -3 -70 3 -38 3 -70 -1 -70 -3 0 -57 15 -119 34 -61 19 -131 37 -154
41 l-43 7 0 44 c0 89 63 113 208 79z m-141 -161 c14 -4 23 -17 27 -39 8 -41
57 -85 95 -85 32 0 71 25 71 46 0 8 3 14 7 14 17 0 113 -44 113 -52 0 -5 -15
-17 -32 -28 -37 -23 -137 -27 -200 -10 -62 18 -111 68 -132 138 -8 24 6 28 51
16z m130 -29 c35 -15 36 -16 18 -35 -20 -22 -51 -19 -72 8 -32 40 -8 53 54 27z"/>
<path d="M1350 1908 c-52 -26 -68 -54 -83 -143 -16 -96 -5 -123 69 -162 124
-66 199 -67 322 -5 84 43 98 86 67 207 -27 103 -67 125 -232 125 -83 0 -106
-4 -143 -22z m235 -8 c78 -13 101 -37 119 -120 7 -36 12 -66 11 -68 -2 -2 -12
1 -23 7 -29 15 -75 14 -108 -4 -16 -8 -54 -15 -84 -15 -30 0 -68 7 -84 15 -33
17 -79 19 -107 5 -16 -9 -19 -7 -19 12 1 50 26 122 50 140 45 33 144 45 245
28z m-160 -214 c55 -21 94 -20 160 5 47 18 61 19 85 9 16 -6 31 -18 34 -26 12
-30 -126 -94 -204 -94 -81 0 -216 64 -203 96 13 35 55 38 128 10z"/>
<path d="M1604 1827 c3 -27 11 -56 17 -65 8 -13 9 -5 5 31 -3 27 -11 56 -17
65 -8 13 -9 5 -5 -31z"/>
<path d="M1340 1673 c0 -15 24 -33 58 -42 40 -12 58 0 33 23 -21 20 -91 34
-91 19z"/>
<path d="M1595 1670 c-27 -10 -49 -37 -37 -44 11 -6 70 11 90 27 30 24 -7 36
-53 17z"/>
<path d="M1287 1570 c28 -52 72 -70 168 -70 49 1 92 7 110 16 17 8 21 11 10 7
-11 -4 -56 -8 -99 -9 -93 -3 -134 11 -178 58 l-30 33 19 -35z"/>
<path d="M707 1520 c-26 -31 -57 -96 -59 -127 -1 -15 0 -59 1 -98 3 -66 4 -68
14 -36 8 24 7 45 -1 78 -11 39 -10 50 7 89 11 25 30 58 42 75 24 34 22 48 -4
19z"/>
<path d="M2280 1514 c0 -3 6 -15 13 -27 6 -12 17 -40 24 -62 8 -30 11 -34 12
-15 1 25 -33 110 -44 110 -3 0 -5 -3 -5 -6z"/>
<path d="M861 1459 c-31 -19 -75 -94 -65 -111 9 -14 34 -9 34 7 0 43 52 40
430 -21 151 -24 356 -21 550 10 321 51 360 52 360 11 0 -17 26 -20 35 -5 10
16 -35 90 -67 110 -17 10 -35 17 -40 14 -16 -10 -8 -32 15 -39 16 -5 1 -10
-53 -16 -41 -4 -129 -17 -195 -28 -293 -50 -437 -50 -730 0 -66 11 -154 24
-195 28 -54 6 -69 11 -52 16 22 7 30 29 14 39 -5 3 -23 -4 -41 -15z"/>
<path d="M2335 1288 c0 -26 12 -48 25 -48 4 0 3 16 -3 35 -12 40 -23 46 -22
13z"/>
<path d="M692 1238 c-8 -8 -7 -14 5 -24 10 -6 23 -27 30 -45 l13 -34 -4 37
c-6 49 -28 82 -44 66z"/>
<path d="M2300 1231 c0 -14 -4 -20 -11 -15 -8 5 -8 1 0 -14 20 -37 30 -34 24
5 -7 44 -13 56 -13 24z"/>
<path d="M577 1225 c-17 -12 -17 -14 -2 -22 9 -5 17 -19 18 -31 1 -12 5 -22 9
-22 9 0 9 22 -1 62 -5 24 -8 25 -24 13z"/>
<path d="M2400 1227 c0 -8 -2 -30 -6 -48 l-5 -34 17 30 c9 17 21 33 27 36 5 4
0 12 -12 18 -17 9 -21 9 -21 -2z"/>
<path d="M2237 1138 c-27 -79 -28 -83 -9 -48 19 35 36 90 28 90 -2 0 -11 -19
-19 -42z"/>
<path d="M632 1157 c-10 -12 -6 -21 22 -51 19 -21 47 -50 62 -66 22 -25 99
-71 118 -72 3 0 38 -9 78 -19 40 -11 80 -21 88 -23 26 -7 124 -46 155 -62 17
-9 47 -35 69 -57 38 -42 40 -36 4 15 -26 37 -23 42 11 17 16 -12 35 -19 43
-17 29 10 -171 91 -313 128 -83 21 -166 48 -192 63 -47 28 -110 96 -125 136
-7 19 -10 21 -20 8z"/>
<path d="M2350 1159 c0 -24 -58 -97 -108 -134 -25 -19 -41 -35 -37 -35 19 0
76 44 122 95 45 48 49 57 37 72 -11 15 -13 15 -14 2z"/>
<path d="M766 1144 c-10 -25 92 -119 162 -151 71 -31 78 -29 15 6 -77 42 -131
88 -152 128 -15 30 -19 33 -25 17z"/>
<path d="M1300 848 c0 -16 5 -28 10 -28 6 0 31 -19 55 -41 64 -59 56 -29 -10
39 -53 55 -55 56 -55 30z"/>
<path d="M1648 823 c-66 -69 -84 -112 -21 -50 27 26 54 47 61 47 7 0 12 11 12
25 0 14 -1 25 -3 25 -1 0 -23 -21 -49 -47z"/>
<path d="M1431 768 c0 -13 13 -33 30 -46 35 -28 36 -22 7 29 -24 44 -38 50
-37 17z"/>
<path d="M1532 751 c-30 -54 -27 -65 8 -29 17 16 30 38 30 49 0 30 -14 22 -38
-20z"/>
</g>
</svg>
