<svg xmlns="http://www.w3.org/2000/svg" xmlns:xlink="http://www.w3.org/1999/xlink" width="270" zoomAndPan="magnify" viewBox="0 0 202.5 44.999999" height="60" preserveAspectRatio="xMidYMid meet" version="1.0"><defs><g/></defs><g fill="#ffffff" fill-opacity="1"><g transform="translate(35.686521, 34.731684)"><g><path d="M 8.84375 -14.078125 L 11.0625 -14.078125 C 13.695312 -14.078125 15.59375 -14.515625 16.75 -15.390625 C 17.914062 -16.273438 18.5 -17.722656 18.5 -19.734375 C 18.5 -21.722656 18.085938 -23.09375 17.265625 -23.84375 C 16.441406 -24.601562 14.882812 -24.984375 12.59375 -24.984375 C 10.988281 -24.984375 9.960938 -24.820312 9.515625 -24.5 C 9.066406 -24.175781 8.84375 -23.570312 8.84375 -22.6875 Z M 8.84375 -3.859375 C 8.84375 -2.835938 9.066406 -2.175781 9.515625 -1.875 C 9.960938 -1.570312 11.226562 -1.421875 13.3125 -1.421875 C 15.5 -1.421875 17.03125 -1.84375 17.90625 -2.6875 C 18.789062 -3.53125 19.234375 -5.007812 19.234375 -7.125 C 19.234375 -8.988281 18.65625 -10.410156 17.5 -11.390625 C 16.351562 -12.378906 14.691406 -12.875 12.515625 -12.875 L 8.84375 -12.875 Z M 1.125 0 L 1.140625 -1.34375 C 2.816406 -1.382812 3.890625 -1.582031 4.359375 -1.9375 C 4.828125 -2.300781 5.0625 -3.035156 5.0625 -4.140625 L 5.0625 -22.109375 C 5.0625 -23.210938 4.84375 -23.9375 4.40625 -24.28125 C 3.976562 -24.632812 2.890625 -24.851562 1.140625 -24.9375 L 1.125 -26.25 L 11.421875 -26.25 C 15.210938 -26.25 18.035156 -25.722656 19.890625 -24.671875 C 21.753906 -23.628906 22.6875 -22.046875 22.6875 -19.921875 C 22.6875 -18.265625 21.984375 -16.890625 20.578125 -15.796875 C 19.179688 -14.703125 17.203125 -13.992188 14.640625 -13.671875 L 14.640625 -13.5 C 17.359375 -13.28125 19.492188 -12.570312 21.046875 -11.375 C 22.597656 -10.1875 23.375 -8.671875 23.375 -6.828125 C 23.375 -4.722656 22.46875 -3.054688 20.65625 -1.828125 C 18.84375 -0.609375 16.34375 0 13.15625 0 Z M 1.125 0 "/></g></g></g><g fill="#ffffff" fill-opacity="1"><g transform="translate(61.565707, 34.731684)"><g><path d="M 0.734375 0 L 0.734375 -1.34375 L 1.28125 -1.34375 C 2.15625 -1.34375 2.765625 -1.492188 3.109375 -1.796875 C 3.460938 -2.097656 3.640625 -2.625 3.640625 -3.375 L 3.640625 -22.140625 C 3.640625 -23.265625 3.46875 -23.988281 3.125 -24.3125 C 2.789062 -24.632812 2.085938 -24.796875 1.015625 -24.796875 L 0.515625 -24.796875 L 0.515625 -26.140625 C 1.566406 -26.191406 2.601562 -26.265625 3.625 -26.359375 C 4.644531 -26.453125 5.617188 -26.5625 6.546875 -26.6875 L 6.546875 -3.375 C 6.546875 -2.632812 6.710938 -2.109375 7.046875 -1.796875 C 7.378906 -1.492188 7.953125 -1.34375 8.765625 -1.34375 L 9.046875 -1.34375 L 9.046875 0 Z M 0.734375 0 "/></g></g></g><g fill="#ffffff" fill-opacity="1"><g transform="translate(71.487837, 34.731684)"><g><path d="M 0.625 0 L 0.625 -1.34375 L 1.171875 -1.34375 C 2.035156 -1.34375 2.644531 -1.492188 3 -1.796875 C 3.351562 -2.097656 3.53125 -2.625 3.53125 -3.375 L 3.53125 -13.84375 C 3.53125 -14.601562 3.347656 -15.140625 2.984375 -15.453125 C 2.628906 -15.765625 2.007812 -15.921875 1.125 -15.921875 C 1.0625 -15.921875 0.945312 -15.914062 0.78125 -15.90625 C 0.613281 -15.894531 0.488281 -15.890625 0.40625 -15.890625 L 0.40625 -17.28125 C 1.257812 -17.332031 2.191406 -17.410156 3.203125 -17.515625 C 4.222656 -17.617188 5.296875 -17.734375 6.421875 -17.859375 L 6.421875 -3.375 C 6.421875 -2.632812 6.59375 -2.109375 6.9375 -1.796875 C 7.289062 -1.492188 7.890625 -1.34375 8.734375 -1.34375 L 9.046875 -1.34375 L 9.046875 0 Z M 2.734375 -24.03125 C 2.734375 -24.664062 2.945312 -25.203125 3.375 -25.640625 C 3.8125 -26.078125 4.347656 -26.296875 4.984375 -26.296875 C 5.617188 -26.296875 6.15625 -26.078125 6.59375 -25.640625 C 7.03125 -25.203125 7.25 -24.664062 7.25 -24.03125 C 7.25 -23.394531 7.03125 -22.863281 6.59375 -22.4375 C 6.164062 -22.019531 5.628906 -21.8125 4.984375 -21.8125 C 4.335938 -21.8125 3.800781 -22.019531 3.375 -22.4375 C 2.945312 -22.863281 2.734375 -23.394531 2.734375 -24.03125 Z M 2.734375 -24.03125 "/></g></g></g><g fill="#ffffff" fill-opacity="1"><g transform="translate(81.161469, 34.731684)"><g><path d="M 14.640625 0 L 0.6875 0 L 0.6875 -1.078125 L 11.3125 -16.328125 L 9.015625 -16.328125 C 7.335938 -16.328125 5.941406 -15.847656 4.828125 -14.890625 C 3.722656 -13.941406 2.972656 -12.578125 2.578125 -10.796875 L 1.53125 -10.796875 L 1.96875 -17.421875 L 14.75 -17.421875 L 14.75 -16.46875 L 4.03125 -1.203125 L 6.078125 -1.203125 C 8.546875 -1.203125 10.378906 -1.65625 11.578125 -2.5625 C 12.773438 -3.476562 13.65625 -5.085938 14.21875 -7.390625 L 15.0625 -7.390625 Z M 14.640625 0 "/></g></g></g><g fill="#ffffff" fill-opacity="1"><g transform="translate(97.083027, 34.731684)"><g><path d="M 14.640625 0 L 0.6875 0 L 0.6875 -1.078125 L 11.3125 -16.328125 L 9.015625 -16.328125 C 7.335938 -16.328125 5.941406 -15.847656 4.828125 -14.890625 C 3.722656 -13.941406 2.972656 -12.578125 2.578125 -10.796875 L 1.53125 -10.796875 L 1.96875 -17.421875 L 14.75 -17.421875 L 14.75 -16.46875 L 4.03125 -1.203125 L 6.078125 -1.203125 C 8.546875 -1.203125 10.378906 -1.65625 11.578125 -2.5625 C 12.773438 -3.476562 13.65625 -5.085938 14.21875 -7.390625 L 15.0625 -7.390625 Z M 14.640625 0 "/></g></g></g><g fill="#ffffff" fill-opacity="1"><g transform="translate(113.004584, 34.731684)"><g><path d="M 11.59375 -3.15625 C 11.070312 -1.925781 10.300781 -0.988281 9.28125 -0.34375 C 8.269531 0.300781 7.050781 0.625 5.625 0.625 C 4.300781 0.625 3.238281 0.265625 2.4375 -0.453125 C 1.644531 -1.171875 1.25 -2.117188 1.25 -3.296875 C 1.25 -4.859375 2 -6.160156 3.5 -7.203125 C 5.007812 -8.242188 7.742188 -9.285156 11.703125 -10.328125 L 11.703125 -12.171875 C 11.703125 -14.015625 11.40625 -15.238281 10.8125 -15.84375 C 10.21875 -16.457031 9.160156 -16.765625 7.640625 -16.765625 C 6.804688 -16.765625 6.125 -16.65625 5.59375 -16.4375 C 5.0625 -16.226562 4.796875 -15.972656 4.796875 -15.671875 C 4.796875 -15.597656 5.0625 -15.335938 5.59375 -14.890625 C 6.125 -14.453125 6.390625 -13.863281 6.390625 -13.125 C 6.390625 -12.519531 6.191406 -12.023438 5.796875 -11.640625 C 5.410156 -11.253906 4.910156 -11.0625 4.296875 -11.0625 C 3.597656 -11.0625 3.039062 -11.269531 2.625 -11.6875 C 2.207031 -12.113281 2 -12.679688 2 -13.390625 C 2 -14.679688 2.59375 -15.734375 3.78125 -16.546875 C 4.976562 -17.359375 6.539062 -17.765625 8.46875 -17.765625 C 10.695312 -17.765625 12.265625 -17.328125 13.171875 -16.453125 C 14.085938 -15.585938 14.546875 -14.046875 14.546875 -11.828125 L 14.546875 -3.421875 C 14.546875 -2.710938 14.617188 -2.21875 14.765625 -1.9375 C 14.910156 -1.664062 15.160156 -1.53125 15.515625 -1.53125 C 15.921875 -1.53125 16.222656 -1.796875 16.421875 -2.328125 C 16.628906 -2.867188 16.753906 -3.691406 16.796875 -4.796875 L 17.59375 -4.796875 L 17.59375 -4.65625 C 17.59375 -2.96875 17.316406 -1.664062 16.765625 -0.75 C 16.222656 0.164062 15.457031 0.625 14.46875 0.625 C 13.613281 0.625 12.957031 0.3125 12.5 -0.3125 C 12.050781 -0.945312 11.785156 -1.894531 11.703125 -3.15625 Z M 11.625 -9.203125 C 9.238281 -8.359375 7.503906 -7.5 6.421875 -6.625 C 5.335938 -5.757812 4.796875 -4.785156 4.796875 -3.703125 C 4.796875 -2.921875 5.007812 -2.320312 5.4375 -1.90625 C 5.863281 -1.488281 6.46875 -1.28125 7.25 -1.28125 C 8.476562 -1.28125 9.515625 -1.78125 10.359375 -2.78125 C 11.203125 -3.789062 11.625 -5.035156 11.625 -6.515625 Z M 11.625 -9.203125 "/></g></g></g><g fill="#ffffff" fill-opacity="1"><g transform="translate(130.967366, 34.731684)"><g><path d="M 0.4375 0 L 0.4375 -1.34375 L 1.125 -1.34375 C 2.1875 -1.34375 2.878906 -1.472656 3.203125 -1.734375 C 3.535156 -2.003906 3.703125 -2.550781 3.703125 -3.375 L 3.703125 -13.5 C 3.703125 -14.582031 3.546875 -15.269531 3.234375 -15.5625 C 2.921875 -15.851562 2.21875 -16 1.125 -16 L 0.40625 -16 L 0.40625 -17.375 C 1.351562 -17.394531 2.484375 -17.460938 3.796875 -17.578125 C 5.109375 -17.703125 5.945312 -17.765625 6.3125 -17.765625 L 6.65625 -17.765625 L 6.65625 -11.703125 L 6.90625 -11.703125 C 7.59375 -13.710938 8.40625 -15.222656 9.34375 -16.234375 C 10.289062 -17.253906 11.347656 -17.765625 12.515625 -17.765625 C 13.460938 -17.765625 14.21875 -17.472656 14.78125 -16.890625 C 15.351562 -16.316406 15.640625 -15.535156 15.640625 -14.546875 C 15.640625 -13.710938 15.4375 -13.066406 15.03125 -12.609375 C 14.632812 -12.160156 14.070312 -11.9375 13.34375 -11.9375 C 12.695312 -11.9375 12.171875 -12.144531 11.765625 -12.5625 C 11.367188 -12.988281 11.171875 -13.550781 11.171875 -14.25 C 11.171875 -14.789062 11.382812 -15.285156 11.8125 -15.734375 C 12.25 -16.179688 12.46875 -16.425781 12.46875 -16.46875 C 12.46875 -16.550781 12.425781 -16.613281 12.34375 -16.65625 C 12.269531 -16.695312 12.164062 -16.71875 12.03125 -16.71875 C 11.582031 -16.71875 11.09375 -16.507812 10.5625 -16.09375 C 10.039062 -15.6875 9.5625 -15.132812 9.125 -14.4375 C 8.3125 -13.144531 7.691406 -11.710938 7.265625 -10.140625 C 6.835938 -8.578125 6.625 -6.941406 6.625 -5.234375 L 6.625 -3.421875 C 6.625 -2.066406 7.769531 -1.375 10.0625 -1.34375 L 10.109375 -1.34375 L 10.109375 0 Z M 0.4375 0 "/></g></g></g><g fill="#ffffff" fill-opacity="1"><g transform="translate(146.888923, 34.731684)"><g><path d="M 9.125 -16.375 C 7.707031 -16.375 6.640625 -15.710938 5.921875 -14.390625 C 5.210938 -13.078125 4.859375 -11.101562 4.859375 -8.46875 C 4.859375 -5.789062 5.203125 -3.789062 5.890625 -2.46875 C 6.578125 -1.144531 7.609375 -0.484375 8.984375 -0.484375 C 10.328125 -0.484375 11.445312 -1.242188 12.34375 -2.765625 C 13.25 -4.296875 13.703125 -6.242188 13.703125 -8.609375 C 13.703125 -11.015625 13.289062 -12.910156 12.46875 -14.296875 C 11.644531 -15.679688 10.53125 -16.375 9.125 -16.375 Z M 13.890625 0.65625 L 13.890625 -3.375 L 13.734375 -3.375 C 13.191406 -2.0625 12.457031 -1.0625 11.53125 -0.375 C 10.613281 0.3125 9.535156 0.65625 8.296875 0.65625 C 6.296875 0.65625 4.632812 -0.191406 3.3125 -1.890625 C 2 -3.585938 1.34375 -5.769531 1.34375 -8.4375 C 1.34375 -11 2.050781 -13.191406 3.46875 -15.015625 C 4.882812 -16.847656 6.550781 -17.765625 8.46875 -17.765625 C 9.613281 -17.765625 10.660156 -17.410156 11.609375 -16.703125 C 12.554688 -15.992188 13.242188 -15.039062 13.671875 -13.84375 L 13.84375 -13.84375 L 13.84375 -22.40625 C 13.84375 -23.332031 13.617188 -23.976562 13.171875 -24.34375 C 12.734375 -24.71875 11.941406 -24.90625 10.796875 -24.90625 L 10.140625 -24.90625 L 10.140625 -26.25 C 11.222656 -26.300781 12.300781 -26.367188 13.375 -26.453125 C 14.457031 -26.535156 15.5625 -26.632812 16.6875 -26.75 L 16.6875 -2.5 C 16.6875 -2.050781 16.847656 -1.722656 17.171875 -1.515625 C 17.503906 -1.304688 18.035156 -1.203125 18.765625 -1.203125 L 18.984375 -1.203125 L 18.984375 -0.03125 C 17.773438 0.0625 16.753906 0.160156 15.921875 0.265625 C 15.085938 0.378906 14.410156 0.507812 13.890625 0.65625 Z M 13.890625 0.65625 "/></g></g></g></svg>