<svg xmlns="http://www.w3.org/2000/svg" xmlns:xlink="http://www.w3.org/1999/xlink" width="270" zoomAndPan="magnify" viewBox="0 0 202.5 44.999999" height="60" preserveAspectRatio="xMidYMid meet" version="1.0"><defs><g/></defs><g fill="#f56284" fill-opacity="1"><g transform="translate(16.102704, 34.310261)"><g><path d="M 12.390625 0.328125 C 10.429688 0.328125 8.679688 -0.117188 7.140625 -1.015625 C 5.609375 -1.921875 4.40625 -3.238281 3.53125 -4.96875 C 2.664062 -6.707031 2.234375 -8.789062 2.234375 -11.21875 C 2.234375 -13.644531 2.664062 -15.722656 3.53125 -17.453125 C 4.40625 -19.179688 5.609375 -20.492188 7.140625 -21.390625 C 8.679688 -22.296875 10.429688 -22.75 12.390625 -22.75 C 14.492188 -22.75 16.238281 -22.351562 17.625 -21.5625 C 19.019531 -20.769531 20.023438 -19.578125 20.640625 -17.984375 L 18.953125 -16.859375 L 18.5625 -16.859375 C 17.945312 -18.140625 17.148438 -19.046875 16.171875 -19.578125 C 15.191406 -20.117188 13.929688 -20.390625 12.390625 -20.390625 C 10.984375 -20.390625 9.734375 -20.070312 8.640625 -19.4375 C 7.546875 -18.8125 6.675781 -17.816406 6.03125 -16.453125 C 5.382812 -15.085938 5.0625 -13.34375 5.0625 -11.21875 C 5.0625 -9.09375 5.382812 -7.347656 6.03125 -5.984375 C 6.675781 -4.617188 7.546875 -3.625 8.640625 -3 C 9.734375 -2.375 10.984375 -2.0625 12.390625 -2.0625 C 14.023438 -2.0625 15.359375 -2.425781 16.390625 -3.15625 C 17.421875 -3.882812 18.1875 -5.066406 18.6875 -6.703125 L 19.078125 -6.703125 L 20.828125 -5.828125 C 20.296875 -3.847656 19.3125 -2.328125 17.875 -1.265625 C 16.4375 -0.203125 14.609375 0.328125 12.390625 0.328125 Z M 12.390625 0.328125 "/></g></g></g><g fill="#f56284" fill-opacity="1"><g transform="translate(38.10856, 34.310261)"><g><path d="M 2.953125 0 L 2.953125 -23.71875 L 5.453125 -23.71875 L 5.453125 -14.515625 L 5.765625 -14.453125 C 6.972656 -16.316406 8.71875 -17.25 11 -17.25 C 13.03125 -17.25 14.503906 -16.726562 15.421875 -15.6875 C 16.335938 -14.644531 16.796875 -13.046875 16.796875 -10.890625 L 16.796875 0 L 14.296875 0 L 14.296875 -10.828125 C 14.296875 -11.847656 14.164062 -12.664062 13.90625 -13.28125 C 13.644531 -13.90625 13.238281 -14.359375 12.6875 -14.640625 C 12.144531 -14.921875 11.429688 -15.0625 10.546875 -15.0625 C 9.003906 -15.0625 7.769531 -14.566406 6.84375 -13.578125 C 5.914062 -12.585938 5.453125 -10.957031 5.453125 -8.6875 L 5.453125 0 Z M 2.953125 0 "/></g></g></g><g fill="#f56284" fill-opacity="1"><g transform="translate(57.597706, 34.310261)"><g><path d="M 6.984375 0.328125 C 5.316406 0.328125 4.015625 -0.101562 3.078125 -0.96875 C 2.140625 -1.84375 1.671875 -3.085938 1.671875 -4.703125 C 1.671875 -5.710938 1.878906 -6.5625 2.296875 -7.25 C 2.710938 -7.9375 3.351562 -8.5 4.21875 -8.9375 C 5.082031 -9.375 6.21875 -9.707031 7.625 -9.9375 C 8.851562 -10.144531 9.785156 -10.375 10.421875 -10.625 C 11.066406 -10.882812 11.5 -11.171875 11.71875 -11.484375 C 11.9375 -11.804688 12.046875 -12.207031 12.046875 -12.6875 C 12.046875 -13.457031 11.78125 -14.046875 11.25 -14.453125 C 10.726562 -14.859375 9.882812 -15.0625 8.71875 -15.0625 C 7.625 -15.0625 6.679688 -14.847656 5.890625 -14.421875 C 5.109375 -14.003906 4.394531 -13.375 3.75 -12.53125 L 3.4375 -12.53125 L 2.203125 -14.265625 C 2.921875 -15.179688 3.832031 -15.90625 4.9375 -16.4375 C 6.039062 -16.976562 7.300781 -17.25 8.71875 -17.25 C 10.707031 -17.25 12.175781 -16.8125 13.125 -15.9375 C 14.070312 -15.0625 14.546875 -13.851562 14.546875 -12.3125 L 14.546875 -3.328125 C 14.546875 -2.390625 14.941406 -1.921875 15.734375 -1.921875 C 16.003906 -1.921875 16.265625 -1.96875 16.515625 -2.0625 L 16.71875 -2 L 17.015625 -0.265625 C 16.828125 -0.140625 16.582031 -0.046875 16.28125 0.015625 C 15.976562 0.0859375 15.671875 0.125 15.359375 0.125 C 14.429688 0.125 13.726562 -0.078125 13.25 -0.484375 C 12.769531 -0.898438 12.460938 -1.503906 12.328125 -2.296875 L 12.015625 -2.328125 C 11.535156 -1.441406 10.882812 -0.773438 10.0625 -0.328125 C 9.25 0.109375 8.222656 0.328125 6.984375 0.328125 Z M 7.53125 -1.671875 C 8.46875 -1.671875 9.28125 -1.882812 9.96875 -2.3125 C 10.664062 -2.75 11.195312 -3.363281 11.5625 -4.15625 C 11.9375 -4.945312 12.125 -5.859375 12.125 -6.890625 L 12.125 -9.03125 L 11.828125 -9.09375 C 11.453125 -8.832031 10.992188 -8.609375 10.453125 -8.421875 C 9.910156 -8.242188 9.148438 -8.085938 8.171875 -7.953125 C 7.191406 -7.816406 6.410156 -7.609375 5.828125 -7.328125 C 5.253906 -7.054688 4.84375 -6.707031 4.59375 -6.28125 C 4.351562 -5.851562 4.234375 -5.328125 4.234375 -4.703125 C 4.234375 -3.710938 4.523438 -2.957031 5.109375 -2.4375 C 5.691406 -1.925781 6.5 -1.671875 7.53125 -1.671875 Z M 7.53125 -1.671875 "/></g></g></g><g fill="#f56284" fill-opacity="1"><g transform="translate(75.107252, 34.310261)"><g><path d="M 4.203125 -20.1875 C 3.671875 -20.1875 3.238281 -20.351562 2.90625 -20.6875 C 2.570312 -21.019531 2.40625 -21.441406 2.40625 -21.953125 C 2.40625 -22.460938 2.570312 -22.882812 2.90625 -23.21875 C 3.238281 -23.550781 3.671875 -23.71875 4.203125 -23.71875 C 4.734375 -23.71875 5.164062 -23.550781 5.5 -23.21875 C 5.832031 -22.882812 6 -22.460938 6 -21.953125 C 6 -21.441406 5.832031 -21.019531 5.5 -20.6875 C 5.164062 -20.351562 4.734375 -20.1875 4.203125 -20.1875 Z M 2.953125 0 L 2.953125 -16.921875 L 5.453125 -16.921875 L 5.453125 0 Z M 2.953125 0 "/></g></g></g><g fill="#f56284" fill-opacity="1"><g transform="translate(83.501403, 34.310261)"><g><path d="M 2.953125 0 L 2.953125 -16.921875 L 5.328125 -16.921875 L 5.328125 -14.265625 L 5.640625 -14.1875 C 6.203125 -15.1875 6.921875 -15.945312 7.796875 -16.46875 C 8.671875 -16.988281 9.738281 -17.25 11 -17.25 C 13.03125 -17.25 14.503906 -16.726562 15.421875 -15.6875 C 16.335938 -14.644531 16.796875 -13.046875 16.796875 -10.890625 L 16.796875 0 L 14.296875 0 L 14.296875 -10.828125 C 14.296875 -11.847656 14.164062 -12.664062 13.90625 -13.28125 C 13.644531 -13.90625 13.238281 -14.359375 12.6875 -14.640625 C 12.144531 -14.921875 11.429688 -15.0625 10.546875 -15.0625 C 9.015625 -15.0625 7.78125 -14.554688 6.84375 -13.546875 C 5.914062 -12.546875 5.453125 -10.925781 5.453125 -8.6875 L 5.453125 0 Z M 2.953125 0 "/></g></g></g><g fill="#f56284" fill-opacity="1"><g transform="translate(102.987421, 34.310261)"><g><path d="M 7.21875 0 L 2.921875 0 L 2.921875 -22.4375 L 8 -22.4375 L 17 -7.984375 L 17.40625 -8.046875 L 17.40625 -22.4375 L 21.65625 -22.4375 L 21.65625 0 L 17.125 0 L 7.59375 -15.4375 L 7.21875 -15.375 Z M 7.21875 0 "/></g></g></g><g fill="#f56284" fill-opacity="1"><g transform="translate(127.58672, 34.310261)"><g><path d="M 9.828125 0.328125 C 8.171875 0.328125 6.71875 -0.0078125 5.46875 -0.6875 C 4.21875 -1.375 3.242188 -2.375 2.546875 -3.6875 C 1.859375 -5 1.515625 -6.585938 1.515625 -8.453125 C 1.515625 -10.316406 1.859375 -11.90625 2.546875 -13.21875 C 3.242188 -14.539062 4.21875 -15.539062 5.46875 -16.21875 C 6.71875 -16.90625 8.171875 -17.25 9.828125 -17.25 C 11.484375 -17.25 12.9375 -16.90625 14.1875 -16.21875 C 15.445312 -15.539062 16.425781 -14.539062 17.125 -13.21875 C 17.820312 -11.90625 18.171875 -10.316406 18.171875 -8.453125 C 18.171875 -6.585938 17.820312 -5 17.125 -3.6875 C 16.425781 -2.375 15.445312 -1.375 14.1875 -0.6875 C 12.9375 -0.0078125 11.484375 0.328125 9.828125 0.328125 Z M 9.828125 -3.28125 C 12.460938 -3.28125 13.78125 -5.003906 13.78125 -8.453125 C 13.78125 -10.242188 13.441406 -11.554688 12.765625 -12.390625 C 12.085938 -13.222656 11.109375 -13.640625 9.828125 -13.640625 C 7.203125 -13.640625 5.890625 -11.910156 5.890625 -8.453125 C 5.890625 -5.003906 7.203125 -3.28125 9.828125 -3.28125 Z M 9.828125 -3.28125 "/></g></g></g><g fill="#f56284" fill-opacity="1"><g transform="translate(147.260016, 34.310261)"><g><path d="M 8.359375 0.328125 C 7.023438 0.328125 5.84375 0.00390625 4.8125 -0.640625 C 3.78125 -1.296875 2.972656 -2.28125 2.390625 -3.59375 C 1.804688 -4.90625 1.515625 -6.523438 1.515625 -8.453125 C 1.515625 -10.390625 1.8125 -12.015625 2.40625 -13.328125 C 3.007812 -14.640625 3.835938 -15.617188 4.890625 -16.265625 C 5.953125 -16.921875 7.179688 -17.25 8.578125 -17.25 C 9.628906 -17.25 10.539062 -17.066406 11.3125 -16.703125 C 12.082031 -16.335938 12.734375 -15.769531 13.265625 -15 L 13.59375 -15.078125 L 13.59375 -23.71875 L 17.84375 -23.71875 L 17.84375 0 L 13.59375 0 L 13.59375 -2.1875 L 13.265625 -2.25 C 12.796875 -1.457031 12.148438 -0.828125 11.328125 -0.359375 C 10.515625 0.0976562 9.523438 0.328125 8.359375 0.328125 Z M 9.75 -3.28125 C 10.9375 -3.28125 11.878906 -3.707031 12.578125 -4.5625 C 13.273438 -5.414062 13.625 -6.710938 13.625 -8.453125 C 13.625 -10.191406 13.273438 -11.488281 12.578125 -12.34375 C 11.878906 -13.207031 10.9375 -13.640625 9.75 -13.640625 C 8.5 -13.640625 7.539062 -13.222656 6.875 -12.390625 C 6.21875 -11.554688 5.890625 -10.242188 5.890625 -8.453125 C 5.890625 -6.671875 6.21875 -5.363281 6.875 -4.53125 C 7.539062 -3.695312 8.5 -3.28125 9.75 -3.28125 Z M 9.75 -3.28125 "/></g></g></g><g fill="#f56284" fill-opacity="1"><g transform="translate(167.547144, 34.310261)"><g><path d="M 16.71875 -7.5 L 5.84375 -7.5 C 5.96875 -6.03125 6.382812 -4.957031 7.09375 -4.28125 C 7.8125 -3.613281 8.789062 -3.28125 10.03125 -3.28125 C 11 -3.28125 11.785156 -3.460938 12.390625 -3.828125 C 12.992188 -4.191406 13.484375 -4.742188 13.859375 -5.484375 L 14.171875 -5.484375 L 17 -3.671875 C 16.445312 -2.484375 15.613281 -1.519531 14.5 -0.78125 C 13.382812 -0.0390625 11.894531 0.328125 10.03125 0.328125 C 8.28125 0.328125 6.769531 -0.00390625 5.5 -0.671875 C 4.226562 -1.335938 3.242188 -2.328125 2.546875 -3.640625 C 1.859375 -4.953125 1.515625 -6.554688 1.515625 -8.453125 C 1.515625 -10.378906 1.878906 -12 2.609375 -13.3125 C 3.335938 -14.632812 4.316406 -15.617188 5.546875 -16.265625 C 6.785156 -16.921875 8.179688 -17.25 9.734375 -17.25 C 12.117188 -17.25 13.945312 -16.613281 15.21875 -15.34375 C 16.5 -14.070312 17.140625 -12.210938 17.140625 -9.765625 C 17.140625 -8.867188 17.109375 -8.175781 17.046875 -7.6875 Z M 13.078125 -10.25 C 13.035156 -11.539062 12.734375 -12.476562 12.171875 -13.0625 C 11.617188 -13.65625 10.804688 -13.953125 9.734375 -13.953125 C 7.578125 -13.953125 6.3125 -12.71875 5.9375 -10.25 Z M 13.078125 -10.25 "/></g></g></g><g fill="#f56284" fill-opacity="1"><g transform="translate(185.946746, 34.310261)"><g><path d="M 7.921875 0.328125 C 6.765625 0.328125 5.703125 0.191406 4.734375 -0.078125 C 3.773438 -0.347656 2.957031 -0.722656 2.28125 -1.203125 C 1.601562 -1.679688 1.097656 -2.226562 0.765625 -2.84375 L 3.125 -5.390625 L 3.453125 -5.390625 C 4.015625 -4.628906 4.675781 -4.054688 5.4375 -3.671875 C 6.207031 -3.296875 7.046875 -3.109375 7.953125 -3.109375 C 8.773438 -3.109375 9.394531 -3.253906 9.8125 -3.546875 C 10.238281 -3.847656 10.453125 -4.273438 10.453125 -4.828125 C 10.453125 -5.265625 10.300781 -5.628906 10 -5.921875 C 9.695312 -6.210938 9.207031 -6.4375 8.53125 -6.59375 L 6.296875 -7.140625 C 4.617188 -7.535156 3.390625 -8.144531 2.609375 -8.96875 C 1.835938 -9.789062 1.453125 -10.835938 1.453125 -12.109375 C 1.453125 -13.160156 1.71875 -14.070312 2.25 -14.84375 C 2.789062 -15.625 3.550781 -16.21875 4.53125 -16.625 C 5.507812 -17.039062 6.648438 -17.25 7.953125 -17.25 C 9.472656 -17.25 10.734375 -17.023438 11.734375 -16.578125 C 12.734375 -16.140625 13.515625 -15.554688 14.078125 -14.828125 L 11.8125 -12.359375 L 11.5 -12.359375 C 11.03125 -12.890625 10.5 -13.28125 9.90625 -13.53125 C 9.320312 -13.78125 8.671875 -13.90625 7.953125 -13.90625 C 6.273438 -13.90625 5.4375 -13.378906 5.4375 -12.328125 C 5.4375 -11.890625 5.59375 -11.53125 5.90625 -11.25 C 6.21875 -10.976562 6.765625 -10.757812 7.546875 -10.59375 L 9.640625 -10.125 C 11.359375 -9.757812 12.613281 -9.171875 13.40625 -8.359375 C 14.195312 -7.546875 14.59375 -6.453125 14.59375 -5.078125 C 14.59375 -4.003906 14.328125 -3.054688 13.796875 -2.234375 C 13.265625 -1.421875 12.492188 -0.789062 11.484375 -0.34375 C 10.484375 0.101562 9.296875 0.328125 7.921875 0.328125 Z M 7.921875 0.328125 "/></g></g></g></svg>