<svg xmlns="http://www.w3.org/2000/svg" width="202" height="28" fill="none" viewBox="0 0 202 28">
  <path fill="#1E2644" d="M21.565 9.5h-3.082c-.182-.887-.501-1.665-.957-2.337a6.372 6.372 0 0 0-1.64-1.69 6.964 6.964 0 0 0-2.126-1.044 8.487 8.487 0 0 0-2.436-.348c-1.541 0-2.938.39-4.189 1.168-1.243.78-2.233 1.927-2.97 3.443-.73 1.517-1.094 3.377-1.094 5.58 0 2.205.365 4.065 1.094 5.581.737 1.517 1.727 2.664 2.97 3.443 1.251.779 2.648 1.169 4.189 1.169.845 0 1.657-.116 2.436-.349a7.129 7.129 0 0 0 2.125-1.031 6.548 6.548 0 0 0 1.64-1.703c.457-.68.776-1.458.958-2.337h3.082c-.232 1.301-.654 2.465-1.267 3.493a9.547 9.547 0 0 1-2.287 2.622 10.016 10.016 0 0 1-3.07 1.629 11.442 11.442 0 0 1-3.617.559c-2.171 0-4.102-.53-5.792-1.59-1.69-1.061-3.02-2.57-3.99-4.525-.97-1.956-1.454-4.276-1.454-6.96 0-2.685.485-5.005 1.454-6.96.97-1.956 2.3-3.464 3.99-4.525 1.69-1.06 3.62-1.59 5.792-1.59 1.284 0 2.49.186 3.617.559a9.871 9.871 0 0 1 3.07 1.64 9.377 9.377 0 0 1 2.287 2.61c.613 1.02 1.035 2.184 1.267 3.493Zm7.517 6.016V27h-2.934V1.545h2.934v9.347h.248a5.397 5.397 0 0 1 2.014-2.349c.903-.588 2.105-.882 3.604-.882 1.301 0 2.44.26 3.418.783.978.513 1.736 1.305 2.275 2.373.547 1.061.82 2.412.82 4.052V27h-2.933V15.068c0-1.516-.394-2.689-1.181-3.517-.779-.837-1.86-1.255-3.244-1.255-.961 0-1.823.203-2.585.609a4.45 4.45 0 0 0-1.79 1.777c-.43.779-.646 1.723-.646 2.834Zm23.363 11.931c-1.21 0-2.307-.227-3.294-.683-.986-.464-1.769-1.131-2.349-2.001-.58-.879-.87-1.94-.87-3.182 0-1.094.216-1.98.647-2.66a4.56 4.56 0 0 1 1.727-1.616 9.081 9.081 0 0 1 2.387-.87 29.04 29.04 0 0 1 2.647-.472c1.16-.15 2.1-.26 2.821-.335.73-.083 1.26-.22 1.591-.41.34-.191.51-.523.51-.995v-.1c0-1.226-.336-2.179-1.007-2.858-.663-.68-1.67-1.02-3.02-1.02-1.4 0-2.498.307-3.294.92-.795.614-1.355 1.268-1.678 1.964l-2.784-.994c.497-1.16 1.16-2.063 1.989-2.71a7.452 7.452 0 0 1 2.734-1.367 11.354 11.354 0 0 1 2.934-.397c.613 0 1.317.074 2.112.223a6.759 6.759 0 0 1 2.325.883c.754.447 1.38 1.122 1.876 2.026.498.903.746 2.113.746 3.629V27h-2.933v-2.585h-.15c-.198.414-.53.857-.994 1.33-.464.472-1.08.874-1.852 1.205-.77.332-1.71.497-2.82.497Zm.448-2.634c1.16 0 2.137-.228 2.933-.684.804-.456 1.408-1.044 1.814-1.765.415-.72.622-1.48.622-2.274v-2.685c-.124.149-.398.286-.82.41-.415.116-.895.22-1.442.31-.539.084-1.065.158-1.579.224-.505.058-.915.108-1.23.15-.762.099-1.475.26-2.138.484-.654.216-1.185.543-1.59.982-.398.431-.597 1.02-.597 1.765 0 1.02.377 1.79 1.13 2.312.763.514 1.728.77 2.897.77ZM66.549 27V7.91h2.933V27H66.55ZM68.04 4.727a2.086 2.086 0 0 1-1.479-.584 1.877 1.877 0 0 1-.609-1.404c0-.547.203-1.015.61-1.405.414-.39.907-.584 1.478-.584.572 0 1.061.195 1.467.584.414.39.621.858.621 1.405s-.207 1.015-.621 1.404a2.04 2.04 0 0 1-1.467.584Zm9.748 10.789V27h-2.933V7.91h2.833v2.982h.249a5.452 5.452 0 0 1 2.038-2.337c.912-.596 2.088-.894 3.53-.894 1.293 0 2.424.265 3.393.795.97.522 1.724 1.317 2.262 2.386.539 1.06.808 2.403.808 4.027V27h-2.933V15.068c0-1.5-.39-2.668-1.168-3.505-.78-.845-1.848-1.268-3.207-1.268-.936 0-1.773.204-2.51.61-.73.405-1.306.998-1.728 1.777-.423.779-.634 1.723-.634 2.834Zm38.359-13.97V27h-4.649l-11.074-16.021h-.186V27h-5.382V1.545h4.723l10.987 16.009h.224V1.545h5.357Zm12.972 25.827c-1.93 0-3.6-.41-5.008-1.23-1.401-.83-2.482-1.98-3.244-3.456-.763-1.483-1.144-3.202-1.144-5.158 0-1.972.381-3.695 1.144-5.17.762-1.483 1.843-2.635 3.244-3.456 1.408-.828 3.078-1.242 5.008-1.242 1.931 0 3.597.414 4.997 1.242 1.409.82 2.494 1.973 3.256 3.456.763 1.475 1.144 3.198 1.144 5.17 0 1.956-.381 3.675-1.144 5.158a8.39 8.39 0 0 1-3.256 3.455c-1.4.82-3.066 1.23-4.997 1.23Zm.025-4.102c.879 0 1.612-.248 2.2-.745.589-.506 1.032-1.194 1.33-2.064.307-.87.46-1.86.46-2.97s-.153-2.1-.46-2.97c-.298-.87-.741-1.559-1.33-2.064-.588-.505-1.321-.758-2.2-.758-.886 0-1.632.253-2.237.758-.596.505-1.048 1.193-1.355 2.063-.298.87-.447 1.86-.447 2.97 0 1.111.149 2.101.447 2.971.307.87.759 1.558 1.355 2.064.605.497 1.351.745 2.237.745Zm19.849 4.04c-1.45 0-2.763-.373-3.94-1.119-1.168-.754-2.096-1.86-2.784-3.318-.679-1.467-1.019-3.265-1.019-5.395 0-2.187.352-4.006 1.057-5.456.704-1.458 1.64-2.548 2.809-3.269a7.195 7.195 0 0 1 3.865-1.093c1.069 0 1.96.182 2.672.546.721.357 1.301.804 1.74 1.343.448.53.787 1.052 1.019 1.566h.162v-9.57h5.282V27h-5.22v-3.058h-.224c-.248.53-.6 1.057-1.056 1.579-.447.514-1.032.94-1.752 1.28-.713.34-1.583.51-2.611.51Zm1.678-4.214c.854 0 1.575-.232 2.163-.696.597-.472 1.052-1.13 1.367-1.976.323-.845.485-1.835.485-2.97 0-1.136-.158-2.122-.472-2.959-.315-.836-.771-1.483-1.368-1.939-.596-.455-1.321-.683-2.175-.683-.87 0-1.603.236-2.2.708-.596.473-1.048 1.127-1.354 1.964-.307.837-.46 1.806-.46 2.909 0 1.11.153 2.092.46 2.945.315.845.766 1.508 1.354 1.989.597.472 1.33.708 2.2.708Zm22.239 4.276c-1.964 0-3.654-.398-5.071-1.193-1.409-.804-2.494-1.94-3.257-3.406-.762-1.475-1.143-3.219-1.143-5.233 0-1.963.381-3.687 1.143-5.17.763-1.483 1.836-2.639 3.22-3.468 1.392-.828 3.024-1.242 4.897-1.242 1.259 0 2.432.203 3.517.609a7.802 7.802 0 0 1 2.859 1.802c.82.804 1.458 1.814 1.914 3.032.455 1.21.683 2.627.683 4.251v1.454h-16.12v-3.28h11.136c0-.763-.165-1.439-.497-2.027a3.56 3.56 0 0 0-1.379-1.38c-.58-.34-1.256-.51-2.026-.51-.804 0-1.517.187-2.138.56a3.923 3.923 0 0 0-1.442 1.48 4.173 4.173 0 0 0-.534 2.05v3.12c0 .944.174 1.76.522 2.448a3.815 3.815 0 0 0 1.504 1.591c.646.373 1.412.56 2.299.56.588 0 1.127-.083 1.616-.25a3.35 3.35 0 0 0 1.255-.745c.348-.331.613-.737.795-1.218l4.897.323a6.685 6.685 0 0 1-1.528 3.083c-.763.87-1.749 1.55-2.958 2.038-1.202.48-2.59.72-4.164.72Zm28.102-14.02-4.847.298a2.513 2.513 0 0 0-.535-1.118 2.835 2.835 0 0 0-1.081-.808c-.439-.207-.966-.31-1.579-.31-.82 0-1.512.173-2.075.521-.564.34-.846.796-.846 1.367 0 .456.183.841.547 1.156.365.315.991.568 1.877.758l3.455.696c1.856.381 3.24.995 4.152 1.84.911.845 1.367 1.955 1.367 3.33 0 1.252-.369 2.35-1.106 3.295-.73.944-1.732 1.681-3.008 2.212-1.268.522-2.73.783-4.388.783-2.527 0-4.54-.526-6.04-1.579-1.492-1.06-2.366-2.502-2.623-4.325l5.208-.273c.158.77.539 1.359 1.144 1.765.604.397 1.379.596 2.324.596.928 0 1.674-.178 2.237-.534.572-.365.862-.833.87-1.405-.008-.48-.211-.874-.609-1.18-.398-.315-1.011-.556-1.839-.721l-3.307-.66c-1.864-.372-3.252-1.018-4.163-1.938-.903-.92-1.355-2.092-1.355-3.517 0-1.227.331-2.283.994-3.17.671-.886 1.612-1.57 2.822-2.05 1.218-.481 2.643-.721 4.275-.721 2.411 0 4.309.51 5.693 1.528 1.392 1.02 2.204 2.407 2.436 4.164Z"/>
</svg>
