<svg xmlns="http://www.w3.org/2000/svg" width="98" height="27" fill="none" viewBox="0 0 98 27">
  <path fill="#1E2644" d="M21.565 8.5h-3.082c-.182-.887-.501-1.665-.957-2.337a6.372 6.372 0 0 0-1.64-1.69 6.964 6.964 0 0 0-2.126-1.044 8.487 8.487 0 0 0-2.436-.348c-1.541 0-2.938.39-4.189 1.168-1.243.78-2.233 1.927-2.97 3.443-.73 1.516-1.094 3.377-1.094 5.58 0 2.205.365 4.065 1.094 5.581.737 1.517 1.727 2.664 2.97 3.443 1.251.779 2.648 1.169 4.189 1.169.845 0 1.657-.116 2.436-.349a7.129 7.129 0 0 0 2.125-1.031 6.548 6.548 0 0 0 1.64-1.703c.457-.68.776-1.458.958-2.337h3.082c-.232 1.301-.654 2.465-1.267 3.493a9.547 9.547 0 0 1-2.287 2.622 10.016 10.016 0 0 1-3.07 1.629 11.442 11.442 0 0 1-3.617.559c-2.171 0-4.102-.53-5.792-1.59-1.69-1.061-3.02-2.57-3.99-4.525-.97-1.956-1.454-4.276-1.454-6.96 0-2.685.485-5.005 1.454-6.96.97-1.956 2.3-3.464 3.99-4.525 1.69-1.06 3.62-1.59 5.792-1.59 1.284 0 2.49.186 3.617.559a9.871 9.871 0 0 1 3.07 1.64 9.377 9.377 0 0 1 2.287 2.61c.613 1.02 1.035 2.184 1.267 3.493ZM26.148 26V6.91h2.834v2.883h.2c.347-.945.977-1.711 1.888-2.3.912-.588 1.94-.882 3.083-.882.215 0 .485.004.808.012.323.009.567.02.733.038v2.982a8.712 8.712 0 0 0-.684-.111 6.728 6.728 0 0 0-1.106-.087c-.928 0-1.756.194-2.486.584a4.406 4.406 0 0 0-1.715 1.59c-.414.672-.621 1.438-.621 2.3V26h-2.934Zm20.446.398c-1.84 0-3.426-.406-4.76-1.218-1.326-.82-2.35-1.964-3.07-3.43-.713-1.476-1.069-3.19-1.069-5.146s.356-3.68 1.069-5.17c.72-1.5 1.723-2.669 3.008-3.506 1.292-.845 2.8-1.267 4.524-1.267a9.05 9.05 0 0 1 2.946.497 7.3 7.3 0 0 1 2.647 1.615c.795.738 1.43 1.716 1.902 2.934.472 1.218.708 2.717.708 4.499v1.243H39.783v-2.536h11.733c0-1.077-.215-2.038-.646-2.883a4.87 4.87 0 0 0-1.815-2.001c-.779-.49-1.699-.734-2.76-.734-1.167 0-2.178.29-3.032.87a5.723 5.723 0 0 0-1.951 2.238 6.571 6.571 0 0 0-.684 2.958v1.69c0 1.442.249 2.664.746 3.667.505.994 1.206 1.752 2.1 2.274.895.514 1.935.77 3.12.77.77 0 1.467-.107 2.088-.322a4.47 4.47 0 0 0 1.628-.995 4.518 4.518 0 0 0 1.057-1.665l2.834.795a6.283 6.283 0 0 1-1.504 2.536c-.705.72-1.575 1.284-2.61 1.69-1.036.398-2.2.597-3.493.597Zm19.576 0c-1.591 0-2.996-.402-4.214-1.206-1.218-.812-2.17-1.955-2.858-3.43-.688-1.483-1.032-3.236-1.032-5.258 0-2.005.344-3.745 1.032-5.22.688-1.475 1.645-2.614 2.87-3.418 1.227-.804 2.644-1.205 4.251-1.205 1.243 0 2.225.207 2.946.621.73.406 1.284.87 1.666 1.392.39.514.692.936.907 1.268h.249V.545h2.933V26h-2.834v-2.933h-.348a18.81 18.81 0 0 1-.92 1.317c-.397.522-.965.99-1.703 1.405-.737.406-1.719.609-2.945.609Zm.398-2.635c1.176 0 2.17-.307 2.983-.92.811-.621 1.429-1.479 1.851-2.573.423-1.102.634-2.374.634-3.816 0-1.425-.207-2.672-.621-3.74-.414-1.078-1.028-1.915-1.84-2.511-.812-.605-1.814-.908-3.007-.908-1.243 0-2.28.32-3.108.957-.82.63-1.437 1.488-1.852 2.573-.406 1.078-.609 2.287-.609 3.63 0 1.358.207 2.593.622 3.703.422 1.102 1.044 1.98 1.864 2.635.829.647 1.856.97 3.083.97Zm22.682 2.585c-1.64 0-3.103-.282-4.387-.845-1.276-.564-2.291-1.347-3.045-2.35-.746-1.01-1.152-2.183-1.218-3.517h3.132c.066.82.348 1.53.845 2.126.497.588 1.148 1.044 1.951 1.367.804.323 1.695.485 2.673.485 1.094 0 2.063-.19 2.908-.572.845-.381 1.508-.912 1.989-1.591.48-.68.72-1.467.72-2.361 0-.937-.231-1.761-.695-2.474-.464-.72-1.144-1.284-2.039-1.69-.895-.406-1.988-.61-3.281-.61h-2.038v-2.734h2.038c1.01 0 1.898-.182 2.66-.546.77-.365 1.371-.879 1.802-1.542.44-.663.659-1.441.659-2.336 0-.862-.19-1.612-.572-2.25a3.91 3.91 0 0 0-1.616-1.491c-.688-.357-1.5-.535-2.436-.535-.878 0-1.707.162-2.486.485a4.63 4.63 0 0 0-1.889 1.38c-.489.596-.754 1.317-.795 2.162h-2.983c.05-1.334.451-2.502 1.205-3.505.754-1.01 1.74-1.798 2.959-2.361C86.537.479 87.883.197 89.35.197c1.574 0 2.925.32 4.052.957 1.127.63 1.992 1.463 2.597 2.499a6.54 6.54 0 0 1 .908 3.356c0 1.433-.377 2.655-1.131 3.666-.746 1.011-1.761 1.711-3.045 2.1v.2c1.607.265 2.862.948 3.766 2.05.903 1.094 1.354 2.449 1.354 4.065 0 1.383-.377 2.626-1.13 3.728-.746 1.094-1.766 1.956-3.058 2.585-1.293.63-2.764.945-4.413.945Z" class="Cred3"/>
</svg>
